# xmcd CD database file
#
# Track frame offsets:
#	150
#	3673
#	32559
#	64699
#	88838
#	114321
#	141733
#	157302
#	193542
#	220310
#	264179
#
# Disc length: 3923 seconds
#
# Revision: 1
# Processed by: cddbd v1.5.1PL0 Copyright (c) Steve Scherf et al.
# Submitted via: CDex 1.51
#
DISCID=9f0f510b
DTITLE=The GUB Trio feat. Lydia van Dam - Something Different
DYEAR=1999
DGENRE=Jazz
TTITLE0=Prologue (Duke Ellington)
TTITLE1=Satin Dol
TTITLE2=Solitude
TTITLE3=Take The A Train
TTITLE4=Prelude To A Kiss
TTITLE5=Caravan
TTITLE6=I Let A Song Go Out Of My Heart
TTITLE7=In A Sentimental Mood
TTITLE8=C Jam Blues
TTITLE9=Something Different
TTITLE10=Day Dream
EXTD=YEAR: 1999
EXTT0=
EXTT1=
EXTT2=
EXTT3=
EXTT4=
EXTT5=
EXTT6=
EXTT7=
EXTT8=
EXTT9=
EXTT10=
PLAYORDER=
